<?xml version="1.0" encoding="UTF-8"?>
<svg id="Objects" xmlns="http://www.w3.org/2000/svg" version="1.1" viewBox="0 0 800 800">
  <defs>
    <style>
      .cls-1 {
        fill: #000;
        stroke-width: 0px;
      }

      .cls-2 {
        fill: #3a72ec;
        stroke: #3a72ec;
        stroke-miterlimit: 10;
      }
    </style>
  </defs>
  <path class="cls-2" d="M506.34,434.12c9.63,0,17.47-7.84,17.47-17.48v-93.93h-189.32v-28.71c0-1.93-1.56-3.5-3.49-3.5h-29.52c-1.35-3.11-4.44-5.29-8.05-5.29-4.85,0-8.78,3.93-8.78,8.78s3.93,8.78,8.78,8.78c3.61,0,6.7-2.18,8.05-5.29h26.03v119.14c0,9.64,7.84,17.48,17.47,17.48h27.91v12.53h-31.64c-7.58,0-13.74,6.17-13.74,13.74s6.16,13.75,13.74,13.75h26.17c-4.89,3.03-8.19,8.39-8.19,14.55,0,9.46,7.69,17.16,17.15,17.16s17.16-7.7,17.16-17.16c0-6.17-3.3-11.53-8.19-14.55h74.78c-4.9,3.03-8.19,8.39-8.19,14.55,0,9.46,7.7,17.16,17.15,17.16s17.16-7.7,17.16-17.16c0-6.17-3.3-11.53-8.19-14.55h42.27v-6.99h-179.07c-3.73,0-6.76-3.03-6.76-6.76s3.03-6.75,6.76-6.75h179.07v-6.99h-47.74v-12.53h33.77ZM376.37,498.85c-5.6,0-10.16-4.56-10.16-10.17s4.56-10.17,10.16-10.17,10.17,4.56,10.17,10.17-4.56,10.17-10.17,10.17ZM469.07,498.85c-5.6,0-10.16-4.56-10.16-10.17s4.56-10.17,10.16-10.17,10.17,4.56,10.17,10.17-4.56,10.17-10.17,10.17ZM506.34,427.12h-33.77v-29.6h44.24v19.11c0,5.79-4.7,10.49-10.48,10.49ZM334.48,358.98h38.4v31.56h-38.4v-31.56ZM379.87,358.98h42.28v31.56h-42.28v-31.56ZM465.58,390.53h-36.44v-31.56h36.44v31.56ZM472.58,358.98h44.24v31.56h-44.24v-31.56ZM429.14,351.99v-22.29h36.44v22.29h-36.44ZM422.15,351.99h-42.28v-22.29h42.28v22.29ZM422.15,397.53v29.6h-42.28v-29.6h42.28ZM429.14,397.53h36.44v29.6h-36.44v-29.6ZM516.81,351.99h-44.24v-22.29h44.24v22.29ZM334.48,329.69h38.4v22.29h-38.4v-22.29ZM344.97,427.12c-5.78,0-10.48-4.7-10.48-10.49v-19.11h38.4v29.6h-27.91ZM465.58,446.64h-85.71v-12.53h85.71v12.53Z"/>
  <path class="cls-1" d="M497.79,258.77c4.72-4.72,4.72-12.37,0-17.09-4.72-4.72-12.37-4.72-17.09,0-4.3,4.3-4.67,11.04-1.12,15.78l-11.18,11.18,2.44,2.44,11.18-11.18c4.73,3.55,11.47,3.18,15.77-1.12ZM482.96,256.5c-3.46-3.46-3.46-9.09,0-12.56,3.46-3.46,9.09-3.46,12.55,0,3.46,3.46,3.46,9.09,0,12.56-3.46,3.46-9.09,3.46-12.55,0Z"/>
  <path class="cls-1" d="M402.42,261.82l-10.96-16.29c-.69-1.03-.42-2.42.61-3.11,1.03-.69,2.42-.42,3.11.61l8.11,12.06,23.03-20.19c.93-.82,2.35-.72,3.17.21.82.93.72,2.35-.21,3.16l-26.87,23.55Z"/>
  <path class="cls-1" d="M443.8,241.65c3.17,3.08,8.03,3.33,11.48.81l7.72,7.33c-1.01,2.05-.66,4.58,1.06,6.26,2.14,2.09,5.57,2.04,7.66-.11,2.08-2.14,2.04-5.57-.11-7.65-1.76-1.71-4.36-1.96-6.4-.82l-7.72-7.33c1.58-2.41,1.86-5.4.87-8.03l6.45-3.89c2.17,1.94,5.5,1.86,7.54-.25,2.1-2.16,2.06-5.62-.11-7.73-2.16-2.1-5.62-2.05-7.72.11-1.37,1.41-1.81,3.35-1.37,5.12l-6.45,3.89c-.15-.17-.3-.34-.46-.5-3.53-3.43-9.18-3.36-12.62.17-3.43,3.53-3.36,9.18.17,12.61Z"/>
  <path class="cls-1" d="M451.22,286.15l4.3-23.52c.14-.76-.37-1.51-1.14-1.65-.77-.14-1.51.37-1.65,1.14l-3.43,18.74-10.31-25.37c-.29-.73-1.12-1.08-1.85-.78-.73.3-1.07,1.12-.78,1.85l10.31,25.37-15.53-11.03c-.64-.45-1.52-.31-1.98.33-.29.41-.33.92-.16,1.36.1.24.26.46.49.62l19.5,13.84c.39.28.91.34,1.36.16.45-.18.77-.58.86-1.06Z"/>
  <g>
    <path class="cls-1" d="M488.4,288.73c-4.15.69-6.97,4.62-6.28,8.77.69,4.15,4.62,6.97,8.77,6.28,4.15-.69,6.97-4.62,6.28-8.77-.69-4.15-4.62-6.97-8.77-6.28Z"/>
    <path class="cls-1" d="M498.74,281.1l-1.67.28-.26-1.6c-.13-.78-.87-1.31-1.64-1.18l-4.75.78c-.78.13-1.31.86-1.18,1.64l.26,1.6-24.4,4.03c-.78.13-1.31.86-1.18,1.64l3.93,23.76c.13.78.87,1.31,1.64,1.18l33.64-5.56c.78-.13,1.31-.86,1.18-1.64l-3.93-23.76c-.13-.78-.87-1.3-1.64-1.18ZM475.01,290.84c.13.78-.4,1.52-1.18,1.65l-5.37.89c-.78.13-1.52-.4-1.65-1.18l-.32-1.92c-.13-.78.4-1.51,1.18-1.64l5.37-.89c.78-.13,1.52.4,1.65,1.18l.32,1.92ZM491.12,305.19c-4.93.81-9.6-2.53-10.42-7.46-.81-4.93,2.53-9.6,7.46-10.41,4.93-.81,9.6,2.53,10.41,7.46.81,4.93-2.53,9.6-7.46,10.42Z"/>
  </g>
  <polygon class="cls-1" points="346 256.67 379.89 242.15 365.37 276.04 362.47 259.57 346 256.67"/>
  <path class="cls-1" d="M426.64,285.52c-1.52.55-2.6,1.82-3.04,3.36l-3.39-9.42-12.79,4.61c1.22.66,2.23,1.81,2.77,3.29,1.07,2.98-.23,6.18-2.9,7.15-2.68.96-5.72-.67-6.79-3.66-.53-1.48-.48-3.01.03-4.3l-12.79,4.6,3.4,9.42c-1.33-.9-2.97-1.19-4.49-.64-2.68.96-3.98,4.17-2.9,7.15,1.08,2.99,4.12,4.62,6.8,3.66,1.52-.55,2.6-1.82,3.05-3.36l3.39,9.43,12.79-4.61c-1.22-.67-2.23-1.81-2.77-3.29-1.08-2.99.23-6.19,2.9-7.15,2.68-.96,5.72.67,6.8,3.66.53,1.48.48,3.02-.03,4.3l12.79-4.61-3.4-9.43c1.33.9,2.97,1.19,4.49.64,2.68-.96,3.98-4.17,2.9-7.15-1.08-2.98-4.12-4.62-6.8-3.66Z"/>
  <path class="cls-1" d="M372.82,299.76h3.87v-7.02h-3.87c-.18-.56-.41-1.1-.68-1.62l2.74-2.74-4.96-4.96-2.74,2.74c-.52-.27-1.06-.5-1.63-.68v-3.87h-7.02v3.87c-.56.18-1.1.41-1.62.68l-2.74-2.74-4.97,4.96,2.74,2.74c-.27.52-.5,1.06-.68,1.62h-3.87v7.02h3.87c.18.56.41,1.11.68,1.63l-2.74,2.74,4.97,4.96,2.74-2.74c.52.27,1.06.49,1.63.68v3.87h7.02v-3.87c.56-.18,1.11-.41,1.63-.68l2.74,2.74,4.96-4.97-2.74-2.74c.26-.52.5-1.06.68-1.62ZM362.04,302.65c-3.53,0-6.4-2.87-6.4-6.4s2.86-6.4,6.4-6.4,6.4,2.86,6.4,6.4-2.86,6.4-6.4,6.4Z"/>
</svg>